<?xml version="1.0" encoding="UTF-8"?>
<svg id="Capa_1" data-name="Capa 1" xmlns="http://www.w3.org/2000/svg" viewBox="0 0 1080 1080">
  <defs>
    <style>
      .cls-1 {
        fill: #fff;
      }

      .cls-2 {
        fill: #4766ff;
      }
    </style>
  </defs>
  <rect class="cls-2" x="-33.05" y="-25.3" width="1136.37" height="1136.37"/>
  <g>
    <path class="cls-1" d="M579.41,629.98l-43.79.03c-5.95,0-11.23-3.32-13.79-7.77-2.38-4.14-4.59-10.03-1.31-15.62l120.51-205c3.33-5.66,8.72-8.26,15.07-8.22l44.68.3c10.95.07,16.86,11.41,13.86,22.19l-118.67,204.28c-3.47,5.97-8.97,9.8-16.56,9.8Z"/>
    <path class="cls-1" d="M403.07,698.21l-44.75.16c-5.68.02-10.48-2.6-13.32-6.27-2.82-3.65-5.59-11.14-2.37-16.61l121.15-206.01c2.93-4.98,8.21-7.41,13.46-7.4l46.43.14c5.38.02,9.72,4.2,11.82,7.8,2.65,4.53,3.68,10.56.43,16.15l-118.03,203.06c-3.01,5.18-8.42,8.96-14.83,8.99Z"/>
    <path class="cls-1" d="M324.85,601.18l-47.87-.15c-11-.03-16.97-11.38-13.89-22.21l121.18-205.95c2.63-4.47,6.82-7.49,11.92-7.48l48.94.09c6.32.01,10.14,5.37,12.27,9.93,2.32,4.95,1.71,9.69-1.73,15.61l-118.07,202.95c-2.42,4.15-7.37,7.21-12.74,7.2Z"/>
    <path class="cls-1" d="M667.86,714.55l-47.98.04c-5.94,0-10.26-4.15-12.24-7.98-2.32-4.48-3.43-10.3-.34-15.55l120.44-204.79c2.95-5.01,8.2-7.57,13.54-7.59l42.74-.12c6.34-.02,11.55,2.43,14.79,7.15,3.03,4.42,4.67,11.06,1.06,17.29l-118,203.07c-2.8,4.82-7.49,8.48-14.01,8.48Z"/>
  </g>
</svg>